<mxfile host="app.diagrams.net" modified="2024-02-18T14:13:27.348Z" agent="Mozilla/5.0 (Windows NT 10.0; Win64; x64) AppleWebKit/537.36 (KHTML, like Gecko) Chrome/121.0.0.0 Safari/537.36" etag="jMwckEoMF1E_BtU8Yca6" version="23.1.5" type="github">
  <diagram name="Halaman-1" id="zG4SLzPwQQ34KADY74Tx">
    <mxGraphModel dx="794" dy="446" grid="1" gridSize="10" guides="1" tooltips="1" connect="1" arrows="1" fold="1" page="1" pageScale="1" pageWidth="827" pageHeight="1169" math="0" shadow="0">
      <root>
        <mxCell id="0" />
        <mxCell id="1" parent="0" />
        <mxCell id="z6JNjI0l9lfAkyF8hwbX-13" style="edgeStyle=orthogonalEdgeStyle;rounded=0;orthogonalLoop=1;jettySize=auto;html=1;exitX=0.5;exitY=1;exitDx=0;exitDy=0;entryX=0.5;entryY=0;entryDx=0;entryDy=0;" edge="1" parent="1">
          <mxGeometry relative="1" as="geometry">
            <mxPoint x="384" y="190" as="sourcePoint" />
            <mxPoint x="385" y="220" as="targetPoint" />
          </mxGeometry>
        </mxCell>
        <mxCell id="z6JNjI0l9lfAkyF8hwbX-84" style="edgeStyle=orthogonalEdgeStyle;rounded=0;orthogonalLoop=1;jettySize=auto;html=1;" edge="1" parent="1" source="z6JNjI0l9lfAkyF8hwbX-21" target="z6JNjI0l9lfAkyF8hwbX-33">
          <mxGeometry relative="1" as="geometry" />
        </mxCell>
        <mxCell id="z6JNjI0l9lfAkyF8hwbX-85" style="edgeStyle=orthogonalEdgeStyle;rounded=0;orthogonalLoop=1;jettySize=auto;html=1;" edge="1" parent="1" source="z6JNjI0l9lfAkyF8hwbX-21" target="z6JNjI0l9lfAkyF8hwbX-34">
          <mxGeometry relative="1" as="geometry" />
        </mxCell>
        <mxCell id="z6JNjI0l9lfAkyF8hwbX-21" value="" style="strokeWidth=2;html=1;shape=mxgraph.flowchart.decision;whiteSpace=wrap;" vertex="1" parent="1">
          <mxGeometry x="334" y="260" width="100" height="100" as="geometry" />
        </mxCell>
        <mxCell id="z6JNjI0l9lfAkyF8hwbX-27" style="edgeStyle=orthogonalEdgeStyle;rounded=0;orthogonalLoop=1;jettySize=auto;html=1;entryX=0.5;entryY=0;entryDx=0;entryDy=0;" edge="1" parent="1" source="z6JNjI0l9lfAkyF8hwbX-22" target="z6JNjI0l9lfAkyF8hwbX-23">
          <mxGeometry relative="1" as="geometry" />
        </mxCell>
        <mxCell id="z6JNjI0l9lfAkyF8hwbX-22" value="" style="strokeWidth=2;html=1;shape=mxgraph.flowchart.start_1;whiteSpace=wrap;" vertex="1" parent="1">
          <mxGeometry x="334" y="40" width="100" height="60" as="geometry" />
        </mxCell>
        <mxCell id="z6JNjI0l9lfAkyF8hwbX-23" value="" style="rounded=1;whiteSpace=wrap;html=1;absoluteArcSize=1;arcSize=14;strokeWidth=2;" vertex="1" parent="1">
          <mxGeometry x="334" y="130" width="100" height="100" as="geometry" />
        </mxCell>
        <mxCell id="z6JNjI0l9lfAkyF8hwbX-25" style="edgeStyle=orthogonalEdgeStyle;rounded=0;orthogonalLoop=1;jettySize=auto;html=1;exitX=0.5;exitY=1;exitDx=0;exitDy=0;entryX=0.5;entryY=0;entryDx=0;entryDy=0;entryPerimeter=0;" edge="1" parent="1" source="z6JNjI0l9lfAkyF8hwbX-23" target="z6JNjI0l9lfAkyF8hwbX-21">
          <mxGeometry relative="1" as="geometry" />
        </mxCell>
        <mxCell id="z6JNjI0l9lfAkyF8hwbX-28" value="Start" style="text;html=1;align=center;verticalAlign=middle;whiteSpace=wrap;rounded=0;" vertex="1" parent="1">
          <mxGeometry x="354" y="55" width="60" height="30" as="geometry" />
        </mxCell>
        <mxCell id="z6JNjI0l9lfAkyF8hwbX-31" value="Persegi atau Persegi Panjang" style="text;html=1;align=center;verticalAlign=middle;whiteSpace=wrap;rounded=0;" vertex="1" parent="1">
          <mxGeometry x="354" y="295" width="60" height="30" as="geometry" />
        </mxCell>
        <mxCell id="z6JNjI0l9lfAkyF8hwbX-41" style="edgeStyle=orthogonalEdgeStyle;rounded=0;orthogonalLoop=1;jettySize=auto;html=1;entryX=0.5;entryY=0;entryDx=0;entryDy=0;" edge="1" parent="1" source="z6JNjI0l9lfAkyF8hwbX-33" target="z6JNjI0l9lfAkyF8hwbX-39">
          <mxGeometry relative="1" as="geometry" />
        </mxCell>
        <mxCell id="z6JNjI0l9lfAkyF8hwbX-33" value="" style="shape=parallelogram;html=1;strokeWidth=2;perimeter=parallelogramPerimeter;whiteSpace=wrap;rounded=1;arcSize=12;size=0.23;" vertex="1" parent="1">
          <mxGeometry x="530" y="280" width="150" height="60" as="geometry" />
        </mxCell>
        <mxCell id="z6JNjI0l9lfAkyF8hwbX-34" value="" style="shape=parallelogram;html=1;strokeWidth=2;perimeter=parallelogramPerimeter;whiteSpace=wrap;rounded=1;arcSize=12;size=0.23;" vertex="1" parent="1">
          <mxGeometry x="80" y="280" width="150" height="60" as="geometry" />
        </mxCell>
        <mxCell id="z6JNjI0l9lfAkyF8hwbX-37" value="Persegi Panjang" style="text;html=1;align=center;verticalAlign=middle;whiteSpace=wrap;rounded=0;" vertex="1" parent="1">
          <mxGeometry x="575" y="295" width="60" height="30" as="geometry" />
        </mxCell>
        <mxCell id="z6JNjI0l9lfAkyF8hwbX-38" value="Persegi&amp;nbsp;" style="text;html=1;align=center;verticalAlign=middle;whiteSpace=wrap;rounded=0;" vertex="1" parent="1">
          <mxGeometry x="120" y="295" width="60" height="30" as="geometry" />
        </mxCell>
        <mxCell id="z6JNjI0l9lfAkyF8hwbX-39" value="" style="shape=parallelogram;html=1;strokeWidth=2;perimeter=parallelogramPerimeter;whiteSpace=wrap;rounded=1;arcSize=12;size=0.23;" vertex="1" parent="1">
          <mxGeometry x="530" y="400" width="150" height="60" as="geometry" />
        </mxCell>
        <mxCell id="z6JNjI0l9lfAkyF8hwbX-59" style="edgeStyle=orthogonalEdgeStyle;rounded=0;orthogonalLoop=1;jettySize=auto;html=1;entryX=0.5;entryY=0;entryDx=0;entryDy=0;" edge="1" parent="1" source="z6JNjI0l9lfAkyF8hwbX-40">
          <mxGeometry relative="1" as="geometry">
            <mxPoint x="130" y="500" as="targetPoint" />
          </mxGeometry>
        </mxCell>
        <mxCell id="z6JNjI0l9lfAkyF8hwbX-40" value="" style="shape=parallelogram;html=1;strokeWidth=2;perimeter=parallelogramPerimeter;whiteSpace=wrap;rounded=1;arcSize=12;size=0.23;" vertex="1" parent="1">
          <mxGeometry x="50" y="400" width="170" height="60" as="geometry" />
        </mxCell>
        <mxCell id="z6JNjI0l9lfAkyF8hwbX-47" style="edgeStyle=orthogonalEdgeStyle;rounded=0;orthogonalLoop=1;jettySize=auto;html=1;entryX=0.6;entryY=0.044;entryDx=0;entryDy=0;entryPerimeter=0;" edge="1" parent="1" source="z6JNjI0l9lfAkyF8hwbX-34" target="z6JNjI0l9lfAkyF8hwbX-40">
          <mxGeometry relative="1" as="geometry" />
        </mxCell>
        <mxCell id="z6JNjI0l9lfAkyF8hwbX-58" style="edgeStyle=orthogonalEdgeStyle;rounded=0;orthogonalLoop=1;jettySize=auto;html=1;entryX=0.5;entryY=0;entryDx=0;entryDy=0;" edge="1" parent="1" source="z6JNjI0l9lfAkyF8hwbX-50" target="z6JNjI0l9lfAkyF8hwbX-54">
          <mxGeometry relative="1" as="geometry" />
        </mxCell>
        <mxCell id="z6JNjI0l9lfAkyF8hwbX-50" value="Input Panjang" style="text;html=1;align=center;verticalAlign=middle;whiteSpace=wrap;rounded=0;" vertex="1" parent="1">
          <mxGeometry x="570" y="415" width="60" height="30" as="geometry" />
        </mxCell>
        <mxCell id="z6JNjI0l9lfAkyF8hwbX-53" value="Masukan Sisi (s)" style="text;html=1;align=center;verticalAlign=middle;whiteSpace=wrap;rounded=0;" vertex="1" parent="1">
          <mxGeometry x="100" y="415" width="60" height="30" as="geometry" />
        </mxCell>
        <mxCell id="z6JNjI0l9lfAkyF8hwbX-65" style="edgeStyle=orthogonalEdgeStyle;rounded=0;orthogonalLoop=1;jettySize=auto;html=1;exitX=0.5;exitY=1;exitDx=0;exitDy=0;entryX=0.5;entryY=0;entryDx=0;entryDy=0;" edge="1" parent="1" source="z6JNjI0l9lfAkyF8hwbX-54" target="z6JNjI0l9lfAkyF8hwbX-62">
          <mxGeometry relative="1" as="geometry" />
        </mxCell>
        <mxCell id="z6JNjI0l9lfAkyF8hwbX-54" value="" style="shape=parallelogram;html=1;strokeWidth=2;perimeter=parallelogramPerimeter;whiteSpace=wrap;rounded=1;arcSize=12;size=0.23;" vertex="1" parent="1">
          <mxGeometry x="530" y="500" width="150" height="60" as="geometry" />
        </mxCell>
        <mxCell id="z6JNjI0l9lfAkyF8hwbX-57" value="Input Lebar" style="text;html=1;align=center;verticalAlign=middle;whiteSpace=wrap;rounded=0;" vertex="1" parent="1">
          <mxGeometry x="570" y="510" width="60" height="30" as="geometry" />
        </mxCell>
        <mxCell id="z6JNjI0l9lfAkyF8hwbX-60" value="" style="rounded=0;whiteSpace=wrap;html=1;" vertex="1" parent="1">
          <mxGeometry x="60" y="500" width="130" height="60" as="geometry" />
        </mxCell>
        <mxCell id="z6JNjI0l9lfAkyF8hwbX-61" value="L= s*s" style="text;html=1;align=center;verticalAlign=middle;whiteSpace=wrap;rounded=0;" vertex="1" parent="1">
          <mxGeometry x="95" y="515" width="60" height="30" as="geometry" />
        </mxCell>
        <mxCell id="z6JNjI0l9lfAkyF8hwbX-73" style="edgeStyle=orthogonalEdgeStyle;rounded=0;orthogonalLoop=1;jettySize=auto;html=1;entryX=0.5;entryY=0;entryDx=0;entryDy=0;" edge="1" parent="1" source="z6JNjI0l9lfAkyF8hwbX-62" target="z6JNjI0l9lfAkyF8hwbX-67">
          <mxGeometry relative="1" as="geometry" />
        </mxCell>
        <mxCell id="z6JNjI0l9lfAkyF8hwbX-62" value="" style="rounded=0;whiteSpace=wrap;html=1;" vertex="1" parent="1">
          <mxGeometry x="525" y="600" width="130" height="60" as="geometry" />
        </mxCell>
        <mxCell id="z6JNjI0l9lfAkyF8hwbX-63" value="Luas = Panjang * Lebar" style="text;html=1;align=center;verticalAlign=middle;whiteSpace=wrap;rounded=0;" vertex="1" parent="1">
          <mxGeometry x="540" y="615" width="90" height="30" as="geometry" />
        </mxCell>
        <mxCell id="z6JNjI0l9lfAkyF8hwbX-66" value="Proses" style="text;html=1;align=center;verticalAlign=middle;whiteSpace=wrap;rounded=0;" vertex="1" parent="1">
          <mxGeometry x="354" y="165" width="60" height="30" as="geometry" />
        </mxCell>
        <mxCell id="z6JNjI0l9lfAkyF8hwbX-67" value="" style="shape=parallelogram;html=1;strokeWidth=2;perimeter=parallelogramPerimeter;whiteSpace=wrap;rounded=1;arcSize=12;size=0.23;" vertex="1" parent="1">
          <mxGeometry x="515" y="710" width="150" height="60" as="geometry" />
        </mxCell>
        <mxCell id="z6JNjI0l9lfAkyF8hwbX-68" value="Output Luas" style="text;html=1;align=center;verticalAlign=middle;whiteSpace=wrap;rounded=0;" vertex="1" parent="1">
          <mxGeometry x="560" y="725" width="60" height="30" as="geometry" />
        </mxCell>
        <mxCell id="z6JNjI0l9lfAkyF8hwbX-69" value="" style="shape=parallelogram;html=1;strokeWidth=2;perimeter=parallelogramPerimeter;whiteSpace=wrap;rounded=1;arcSize=12;size=0.23;" vertex="1" parent="1">
          <mxGeometry x="40" y="610" width="150" height="60" as="geometry" />
        </mxCell>
        <mxCell id="z6JNjI0l9lfAkyF8hwbX-70" value="Tampilkan Luas" style="text;html=1;align=center;verticalAlign=middle;whiteSpace=wrap;rounded=0;" vertex="1" parent="1">
          <mxGeometry x="80" y="630" width="60" height="30" as="geometry" />
        </mxCell>
        <mxCell id="z6JNjI0l9lfAkyF8hwbX-72" style="edgeStyle=orthogonalEdgeStyle;rounded=0;orthogonalLoop=1;jettySize=auto;html=1;entryX=0.567;entryY=0;entryDx=0;entryDy=0;entryPerimeter=0;" edge="1" parent="1" source="z6JNjI0l9lfAkyF8hwbX-60" target="z6JNjI0l9lfAkyF8hwbX-69">
          <mxGeometry relative="1" as="geometry" />
        </mxCell>
        <mxCell id="z6JNjI0l9lfAkyF8hwbX-76" value="" style="strokeWidth=2;html=1;shape=mxgraph.flowchart.start_1;whiteSpace=wrap;" vertex="1" parent="1">
          <mxGeometry x="280" y="725" width="100" height="60" as="geometry" />
        </mxCell>
        <mxCell id="z6JNjI0l9lfAkyF8hwbX-81" style="edgeStyle=orthogonalEdgeStyle;rounded=0;orthogonalLoop=1;jettySize=auto;html=1;entryX=1;entryY=0.5;entryDx=0;entryDy=0;entryPerimeter=0;" edge="1" parent="1" source="z6JNjI0l9lfAkyF8hwbX-67" target="z6JNjI0l9lfAkyF8hwbX-76">
          <mxGeometry relative="1" as="geometry" />
        </mxCell>
        <mxCell id="z6JNjI0l9lfAkyF8hwbX-82" style="edgeStyle=orthogonalEdgeStyle;rounded=0;orthogonalLoop=1;jettySize=auto;html=1;entryX=0;entryY=0.5;entryDx=0;entryDy=0;entryPerimeter=0;" edge="1" parent="1" source="z6JNjI0l9lfAkyF8hwbX-69" target="z6JNjI0l9lfAkyF8hwbX-76">
          <mxGeometry relative="1" as="geometry" />
        </mxCell>
        <mxCell id="z6JNjI0l9lfAkyF8hwbX-83" value="End" style="text;html=1;align=center;verticalAlign=middle;whiteSpace=wrap;rounded=0;" vertex="1" parent="1">
          <mxGeometry x="300" y="740" width="60" height="30" as="geometry" />
        </mxCell>
      </root>
    </mxGraphModel>
  </diagram>
</mxfile>
